<svg xmlns="http://www.w3.org/2000/svg" style="transform: scale(1,-1)" viewBox="0 0 29 34" id="paw-clap">
        <path d="M4.5,34 L4.5,20.5024009 L4.28033009,20.282731 C2.42337534,18.4257762 1.5,16.1173379 1.5,13.313061 C1.5,10.6471662 2.60979812,9.12119381 4.93190172,8.54066791 L5.40134193,8.42330786 L5.48790243,7.94722512 C6.11076052,4.52150561 7.30156981,2.58644052 8.98717082,2.02457351 C10.7449132,1.4386594 12.3127354,1.72371798 13.7814787,2.89871265 L14.2596812,3.28127461 L14.7301383,2.889227 C16.5115081,1.40475216 18.1951255,1.12414927 19.9145898,1.98388143 C21.651916,2.85254456 22.6936777,4.78724477 23.0037221,7.88768883 L23.0577045,8.42751297 L23.5873022,8.54520133 C26.260051,9.13914552 27.5,10.5168667 27.5,12.813061 C27.5,15.28217 26.4070465,17.7803495 24.1855675,20.3191826 L24,20.5312597 L24,34 L4.5,34 Z" fill="var(--paw-clap-background)"></path>
        <path d="M12.146803,1.97288306 L11.9871708,2.02457351 C10.359694,2.56706579 9.19347364,4.38968566 8.55435901,7.59815296 L8.48790243,7.94722512 L8.40134193,8.42330786 L7.93190172,8.54066791 C5.60979812,9.12119381 4.5,10.6471662 4.5,13.313061 C4.5,15.9954128 5.34482735,18.2241051 7.04341216,20.0379554 L7.28033009,20.282731 L7.5,20.5024009 L7.5,34 L4.5,34 L4.5,20.5024009 L4.28033009,20.282731 C2.42337534,18.4257762 1.5,16.1173379 1.5,13.313061 C1.5,10.6471662 2.60979812,9.12119381 4.93190172,8.54066791 L5.40134193,8.42330786 L5.48790243,7.94722512 C6.11076052,4.52150561 7.30156981,2.58644052 8.98717082,2.02457351 C10.1099844,1.65030233 11.1553025,1.63142458 12.146803,1.97288306 Z" fill="var(--paw-clap-shadow)"></path>
        <path d="M29,12.813061 C29,9.9391533 27.4240531,8.03364289 24.4355571,7.21065466 C24.0076525,3.9347868 22.7345972,1.71683414 20.5854102,0.642240647 C18.464427,-0.418250938 16.3124373,-0.158512501 14.2369156,1.37034347 C12.4952684,0.178909945 10.5640578,-0.0821942985 8.51282918,0.601548566 C6.29105947,1.34213847 4.84205262,3.58191705 4.10108646,7.21697394 C1.39604257,8.06878334 0,10.155857 0,13.313061 C0,16.3976705 1.00305875,19.0125677 3,21.1178657 L3,34 L4.5,34 L4.5,20.5024009 L4.28033009,20.282731 C2.42337534,18.4257762 1.5,16.1173379 1.5,13.313061 C1.5,10.6471662 2.60979812,9.12119381 4.93190172,8.54066791 L5.40134193,8.42330786 L5.48790243,7.94722512 C6.11076052,4.52150561 7.30156981,2.58644052 8.98717082,2.02457351 C10.7449132,1.4386594 12.3127354,1.72371798 13.7814787,2.89871265 L14.2596812,3.28127461 L14.7301383,2.889227 C16.5115081,1.40475216 18.1951255,1.12414927 19.9145898,1.98388143 C21.651916,2.85254456 22.6936777,4.78724477 23.0037221,7.88768883 L23.0577045,8.42751297 L23.5873022,8.54520133 C26.260051,9.13914552 27.5,10.5168667 27.5,12.813061 C27.5,15.28217 26.4070465,17.7803495 24.1855675,20.3191826 L24,20.5312597 L24,34 L25.5,34 L25.5,21.0920704 C27.8223642,18.3671442 29,15.6039027 29,12.813061 Z" fill="var(--paw-clap-border)"></path>
    </svg>